<svg height="511pt" viewBox="1 0 511.999 511" width="511pt" xmlns="http://www.w3.org/2000/svg"><path d="m435.140625 331.195312c44.554687-31.921874 72.058594-63.558593 73.207031-64.890624 4.859375-5.632813 4.859375-13.972657 0-19.605469-1.148437-1.332031-28.652344-32.96875-73.207031-64.890625-26.277344-18.828125-53.089844-33.859375-79.691406-44.671875-13.769531-5.597657-27.5-10.042969-41.132813-13.375 50.992188 22.492187 86.679688 73.523437 86.679688 132.742187 0 59.214844-35.6875 110.246094-86.679688 132.738282 13.632813-3.328126 27.363282-7.777344 41.132813-13.375 26.601562-10.8125 53.414062-25.839844 79.691406-44.671876zm0 0"/><path d="m110.996094 256.503906c0-59.21875 35.6875-110.25 86.679687-132.738281-13.632812 3.328125-27.363281 7.777344-41.132812 13.375-26.601563 10.808594-53.414063 25.839844-79.695313 44.667969-44.550781 31.925781-72.054687 63.5625-73.203125 64.894531-4.859375 5.628906-4.859375 13.96875 0 19.601563 1.148438 1.332031 28.652344 32.96875 73.203125 64.890624 26.28125 18.832032 53.09375 33.859376 79.695313 44.671876 13.769531 5.597656 27.5 10.046874 41.132812 13.375-50.992187-22.492188-86.679687-73.523438-86.679687-132.738282zm0 0"/><path d="m370.996094 256.503906c0-63.410156-51.589844-115-115-115s-115 51.589844-115 115 51.589844 114.996094 115 114.996094 115-51.585938 115-114.996094zm-115 29.980469c-16.570313 0-30-13.433594-30-30 0-16.570313 13.429687-30 30-30 16.566406 0 30 13.429687 30 30 0 16.566406-13.433594 30-30 30zm0 0"/><path d="m15.003906 171.671875c8.285156 0 15-6.714844 15-15v-126.171875h126.171875c8.285157 0 15-6.714844 15-15s-6.714843-15-15-15h-141.171875c-8.28125 0-14.99999975 6.714844-14.99999975 15v141.171875c0 8.285156 6.71484375 15 14.99999975 15zm0 0"/><path d="m497 .5h-141.175781c-8.28125 0-15 6.714844-15 15s6.71875 15 15 15h126.175781v126.171875c0 8.285156 6.714844 15 15 15 8.28125 0 15-6.714844 15-15v-141.171875c0-8.285156-6.71875-15-15-15zm0 0"/><path d="m156.175781 482.492188h-126.171875v-126.171876c0-8.285156-6.714844-15-15-15-8.28125 0-14.99999975 6.714844-14.99999975 15v141.171876c0 8.285156 6.71874975 15 14.99999975 15h141.171875c8.285157 0 15-6.714844 15-15 0-8.28125-6.714843-15-15-15zm0 0"/><path d="m497 341.320312c-8.285156 0-15 6.714844-15 15v126.171876h-126.175781c-8.28125 0-15 6.71875-15 15 0 8.285156 6.71875 15 15 15h141.175781c8.28125 0 15-6.714844 15-15v-141.171876c0-8.285156-6.71875-15-15-15zm0 0"/></svg>