<?xml version="1.0" encoding="iso-8859-1"?>
<!-- Generator: Adobe Illustrator 19.0.0, SVG Export Plug-In . SVG Version: 6.00 Build 0)  -->
<svg version="1.1" id="Capa_1" xmlns="http://www.w3.org/2000/svg" xmlns:xlink="http://www.w3.org/1999/xlink" x="0px" y="0px"
	 viewBox="0 0 512 512" style="enable-background:new 0 0 512 512;" xml:space="preserve">
<g>
	<g>
		<path d="M497,392h-45v45c0,8.291-6.709,15-15,15c-8.291,0-15-6.709-15-15v-45h-30v15v30c0,8.291-6.709,15-15,15
			c-8.291,0-15-6.709-15-15v-30v-15h-30v45c0,8.291-6.709,15-15,15c-8.291,0-15-6.709-15-15v-45h-30v45c0,8.291-6.709,15-15,15
			s-15-6.709-15-15v-45h-30v45c0,8.291-6.709,15-15,15s-15-6.709-15-15v-45h-30v45c0,8.291-6.709,15-15,15s-15-6.709-15-15v-23.789
			L23.211,512H497c8.291,0,15-6.709,15-15v-90C512,398.709,505.291,392,497,392z"/>
	</g>
</g>
<g>
	<g>
		<path d="M75,60h45V15c0-8.291-6.709-15-15-15H15C6.709,0,0,6.709,0,15v473.789L98.789,390H75c-8.291,0-15-6.709-15-15
			c0-8.291,6.709-15,15-15h45v-30H75c-8.291,0-15-6.709-15-15c0-8.291,6.709-15,15-15h45v-30H75c-8.291,0-15-6.709-15-15
			c0-8.291,6.709-15,15-15h45v-30H75c-8.291,0-15-6.709-15-15s6.709-15,15-15h45v-30H75c-8.291,0-15-6.709-15-15s6.709-15,15-15h45
			V90H75c-8.291,0-15-6.709-15-15S66.709,60,75,60z"/>
	</g>
</g>
<g>
	<g>
		<path d="M321.815,1.172c-3.721-1.553-7.91-1.553-11.631,0L166.416,61.558l147.737,70.913c0.633-0.08,1.191-0.371,1.847-0.371
			s1.216,0.291,1.849,0.372l147.744-70.909L321.815,1.172z"/>
	</g>
</g>
<g>
	<g>
		<path d="M151,87.431V270c0,5.684,3.208,10.869,8.291,13.418L301,354.272V159.435L151,87.431z"/>
	</g>
</g>
<g>
	<g>
		<path d="M331,159.435v194.837l141.709-70.854C477.792,280.869,481,275.684,481,270V87.44L331,159.435z"/>
	</g>
</g>
<g>
</g>
<g>
</g>
<g>
</g>
<g>
</g>
<g>
</g>
<g>
</g>
<g>
</g>
<g>
</g>
<g>
</g>
<g>
</g>
<g>
</g>
<g>
</g>
<g>
</g>
<g>
</g>
<g>
</g>
</svg>
