<?xml version="1.0" encoding="iso-8859-1"?>
<!-- Generator: Adobe Illustrator 18.1.1, SVG Export Plug-In . SVG Version: 6.00 Build 0)  -->
<svg version="1.1" id="Capa_1" xmlns="http://www.w3.org/2000/svg" xmlns:xlink="http://www.w3.org/1999/xlink" x="0px" y="0px"
	 viewBox="0 0 13.756 13.756" style="enable-background:new 0 0 13.756 13.756;" xml:space="preserve">
<g>
	<path style="fill:#030104;" d="M13.141,13.399L9.037,0.163C9.008,0.066,8.918,0,8.816,0H4.872C4.77,0,4.681,0.066,4.651,0.164
		L0.588,13.457c-0.021,0.069-0.008,0.146,0.035,0.205c0.043,0.059,0.113,0.094,0.186,0.094h3.116c0.104,0,0.195-0.07,0.223-0.17
		l0.899-3.242h3.459l0.977,3.247c0.029,0.098,0.119,0.165,0.221,0.165h3.234c0.003-0.001,0.006-0.001,0.009,0
		c0.128,0,0.231-0.104,0.231-0.231C13.179,13.478,13.165,13.435,13.141,13.399z M7.936,7.633H5.611l0.707-2.526
		C6.45,4.64,6.574,4.089,6.694,3.556C6.707,3.498,6.72,3.44,6.733,3.383C6.879,3.968,7.037,4.582,7.195,5.11L7.936,7.633z"/>
</g>
<g>
</g>
<g>
</g>
<g>
</g>
<g>
</g>
<g>
</g>
<g>
</g>
<g>
</g>
<g>
</g>
<g>
</g>
<g>
</g>
<g>
</g>
<g>
</g>
<g>
</g>
<g>
</g>
<g>
</g>
</svg>
