<svg width="480" height="480" xmlns="http://www.w3.org/2000/svg" xmlns:svg="http://www.w3.org/2000/svg" xmlns:xlink="http://www.w3.org/1999/xlink">
 <!-- Created with SVG-edit - https://github.com/SVG-Edit/svgedit-->
 <defs>
  <symbol viewBox="0 0 477.88 477.88" y="0px" x="0px" id="svg_2" xmlns:xlink="http://www.w3.org/1999/xlink" xmlns="http://www.w3.org/2000/svg">
   <g>
    <g>
     <path d="m460.809,0l-187.733,0c-4.526,0.001 -8.866,1.8 -12.066,5.001l-256,256c-6.669,6.661 -6.675,17.467 -0.013,24.136c0.004,0.004 0.009,0.009 0.013,0.013l187.733,187.733c6.665,6.662 17.468,6.662 24.132,0l256,-256c3.205,-3.204 5.004,-7.551 5.001,-12.083l0,-187.733c0,-9.426 -7.641,-17.067 -17.067,-17.067zm-102.4,153.6c-18.851,0 -34.133,-15.282 -34.133,-34.133s15.282,-34.133 34.133,-34.133s34.133,15.282 34.133,34.133s-15.282,34.133 -34.133,34.133z"/>
    </g>
   </g>
   <g/>
   <g/>
   <g/>
   <g/>
   <g/>
   <g/>
   <g/>
   <g/>
   <g/>
   <g/>
   <g/>
   <g/>
   <g/>
   <g/>
   <g/>
  </symbol>
 </defs>
 <g class="layer">
  <title>Layer 1</title>
  <use x="62.72175" y="65.7085" transform="matrix(0.786425501595083,0,0,0.784375204524092,2.2867087136181254,1.0648233830466323) " xlink:href="#svg_2" id="svg_3"/>
  <g id="svg_4"/>
 </g>
</svg>