<svg id="_x33_0" enable-background="new 0 0 64 64" height="512" viewBox="0 0 64 64" width="512" xmlns="http://www.w3.org/2000/svg"><g><path d="m60 21c-.311 0-.606.061-.888.149l-1.612-2.149h-10.5v2h9.5l1.004 1.34c-.317.475-.504 1.046-.504 1.66 0 1.654 1.346 3 3 3s3-1.346 3-3-1.346-3-3-3z"/><circle cx="4" cy="60" r="3"/><path d="m4 17c1.302 0 2.402-.839 2.816-2h10.184v-2h-10.184c-.414-1.161-1.514-2-2.816-2-1.654 0-3 1.346-3 3s1.346 3 3 3z"/><circle cx="12" cy="60" r="3"/><path d="m41 53h-15.887c-.996 0-1.922-.678-2.085-1.661-.207-1.252.758-2.339 1.972-2.339h-3.444c-.466.799-.689 1.756-.474 2.791.396 1.911 2.196 3.209 4.147 3.209h15.658c.996 0 1.922.678 2.085 1.661.207 1.252-.758 2.339-1.972 2.339h-24v2h23.822c2.088 0 3.956-1.523 4.158-3.601.232-2.385-1.643-4.399-3.98-4.399z"/><path d="m29 3h2v2h-2z"/><path d="m33 3h2v2h-2z"/><path d="m23 21c4.201 0 8.23 1.683 11.213 4.617 2.025-1.335 4.336-2.186 6.787-2.488v-16.129h-18z"/><path d="m37 3h2v2h-2z"/><path d="m43 23c.677 0 1.342.057 2 .139v-20.139h-4v2h2z"/><path d="m25 3h2v2h-2z"/><path d="m56 37c-2.757 0-5 2.243-5 5v1h-2v-1c0-1.59.539-3.053 1.436-4.23-.788-1.381-2.125-2.411-3.679-2.8l.485-1.939c1.913.478 3.573 1.686 4.651 3.313 1.156-.842 2.572-1.344 4.107-1.344.142 0 .28.013.419.021-1.735-5.884-7.159-10.021-13.419-10.021-4.445 0-8.527 2.041-11.201 5.6l-1.599-1.201c.717-.954 1.529-1.803 2.407-2.559-2.587-2.445-6.026-3.84-9.607-3.84-7.024 0-12.926 5.244-13.859 12.102.922.152 1.782.484 2.546.96 1.03-1.982 2.871-3.481 5.07-4.031l.485 1.939c-1.793.449-3.27 1.741-3.981 3.429 1.079 1.231 1.739 2.839 1.739 4.601v1h-2v-1c0-2.757-2.243-5-5-5s-5 2.243-5 5 2.243 5 5 5h18.54c-.954-1.063-1.54-2.462-1.54-4 0-3.309 2.691-6 6-6s6 2.691 6 6h-2c0-2.206-1.794-4-4-4s-4 1.794-4 4 1.794 4 4 4h25c2.757 0 5-2.243 5-5s-2.243-5-5-5zm-32.764-4 .211.105-.895 1.789-.211-.105c-1.444-.722-2.341-2.174-2.341-3.789 0-.331.047-.653.119-.965-.516-.644-1.284-1.035-2.119-1.035v-2c1.157 0 2.25.423 3.1 1.161.347-.382.761-.709 1.242-.95l.21-.105.895 1.789-.211.105c-.762.381-1.236 1.147-1.236 2s.474 1.619 1.236 2z"/><path d="m21 5h2v-2h-4v18.526c.653-.169 1.319-.3 2-.386z"/><path d="m4 7c.311 0 .606-.061.888-.15l1.612 2.15h10.5v-2h-9.5l-1.005-1.339c.318-.476.505-1.047.505-1.661 0-1.654-1.346-3-3-3s-3 1.346-3 3 1.346 3 3 3z"/><path d="m4 27c1.654 0 3-1.346 3-3 0-.614-.187-1.185-.504-1.66l1.004-1.34h9.5v-2h-10.5l-1.612 2.149c-.282-.088-.577-.149-.888-.149-1.654 0-3 1.346-3 3s1.346 3 3 3z"/><path d="m60 11c-1.302 0-2.402.839-2.816 2h-10.184v2h10.184c.414 1.161 1.514 2 2.816 2 1.654 0 3-1.346 3-3s-1.346-3-3-3z"/><path d="m59.112 6.85c.282.089.577.15.888.15 1.654 0 3-1.346 3-3s-1.346-3-3-3-3 1.346-3 3c0 .614.187 1.185.505 1.661l-1.005 1.339h-9.5v2h10.5z"/></g></svg>