<svg id="Layer_1" enable-background="new 0 0 512 512" height="512" viewBox="0 0 512 512" width="512" xmlns="http://www.w3.org/2000/svg"><g><path d="m444 0h-376c-37.495 0-68 30.505-68 68v280c0 19.851 16.149 36 36 36h68v92c0 19.851 16.149 36 36 36h336c19.851 0 36-16.149 36-36v-408c0-37.495-30.505-68-68-68zm-340 352h-68c-2.206 0-4-1.794-4-4v-280c0-19.851 16.149-36 36-36s36 16.149 36 36zm216 17.725v5.823c0 8.615-6.621 16.028-15.226 16.434-9.188.433-16.774-6.889-16.774-15.982v-6.253c0-2.195-1.44-4.109-3.532-4.774-22.346-7.098-39.523-26.107-43.578-50.332-1.459-8.715 4.423-16.963 13.138-18.422 8.719-1.462 16.963 4.423 18.422 13.139 2.707 16.167 17.132 27.692 33.793 26.566 15.741-1.064 28.516-13.791 29.669-29.526 1.372-18.723-13.474-34.398-31.912-34.398-35.29 0-64-28.71-64-64 0-28.489 18.711-52.69 44.49-60.959 2.082-.668 3.51-2.579 3.51-4.765v-5.823c0-8.615 6.621-16.028 15.226-16.434 9.188-.434 16.774 6.888 16.774 15.981v6.253c0 2.195 1.44 4.109 3.532 4.774 22.346 7.098 39.523 26.107 43.578 50.332 1.459 8.715-4.423 16.963-13.138 18.422-8.72 1.464-16.964-4.423-18.422-13.139-2.707-16.167-17.132-27.692-33.793-26.566-15.741 1.064-28.516 13.791-29.669 29.526-1.372 18.723 13.474 34.398 31.912 34.398 35.29 0 64 28.71 64 64 0 28.489-18.711 52.69-44.49 60.959-2.082.668-3.51 2.579-3.51 4.766z"/></g></svg>