<?xml version="1.0" encoding="iso-8859-1"?>
<!-- Generator: Adobe Illustrator 16.0.0, SVG Export Plug-In . SVG Version: 6.00 Build 0)  -->
<!DOCTYPE svg PUBLIC "-//W3C//DTD SVG 1.1//EN" "http://www.w3.org/Graphics/SVG/1.1/DTD/svg11.dtd">
<svg version="1.1" id="Capa_1" xmlns="http://www.w3.org/2000/svg" xmlns:xlink="http://www.w3.org/1999/xlink" x="0px" y="0px"
	 width="431.985px" height="431.985px" viewBox="0 0 431.985 431.985" style="enable-background:new 0 0 431.985 431.985;"
	 xml:space="preserve">
<svg>
 <path fill="rgb(255,255,255)" stroke="none" d="M 14,14 L 14,9013 21759,9013 21759,14 14,14 Z"/>
 <path fill="rgb(255,13,0)" stroke="none" d="M 10886,1323 L 10886,1323 C 11386,1323 11880,1426 12339,1624 L 11976,2462 11976,2462 C 11632,2313 11261,2236 10886,2236 L 10886,1323 Z"/>
 <path stroke-width="53" fill="none" stroke="rgb(255,255,255)" d="M 10886,1323 L 10886,1323 C 11386,1323 11880,1426 12339,1624 L 11976,2462 11976,2462 C 11632,2313 11261,2236 10886,2236 L 10886,1323 Z"/>
 <path fill="rgb(255,154,0)" stroke="none" d="M 12339,1624 L 12339,1624 C 14052,2367 14929,4283 14371,6065 L 13500,5793 13500,5793 C 13919,4456 13261,3019 11976,2462 L 12339,1624 Z"/>
 <path stroke-width="53" fill="none" stroke="rgb(255,255,255)" d="M 12339,1624 L 12339,1624 C 14052,2367 14929,4283 14371,6065 L 13500,5793 13500,5793 C 13919,4456 13261,3019 11976,2462 L 12339,1624 Z"/>
 <path fill="rgb(205,255,0)" stroke="none" d="M 14371,6065 L 14371,6065 C 14292,6320 14184,6565 14051,6797 L 13260,6341 13260,6341 C 13360,6168 13440,5984 13500,5793 L 14371,6065 Z"/>
 <path stroke-width="53" fill="none" stroke="rgb(255,255,255)" d="M 14371,6065 L 14371,6065 C 14292,6320 14184,6565 14051,6797 L 13260,6341 13260,6341 C 13360,6168 13440,5984 13500,5793 L 14371,6065 Z"/>
 <path fill="rgb(51,255,0)" stroke="none" d="M 14051,6797 L 14051,6797 C 14032,6828 14014,6860 13994,6892 L 13217,6413 13217,6413 C 13232,6389 13246,6365 13260,6341 L 14051,6797 Z"/>
 <path stroke-width="53" fill="none" stroke="rgb(255,255,255)" d="M 14051,6797 L 14051,6797 C 14032,6828 14014,6860 13994,6892 L 13217,6413 13217,6413 C 13232,6389 13246,6365 13260,6341 L 14051,6797 Z"/>
 <path fill="rgb(91,155,213)" stroke="none" d="M 13994,6892 L 13994,6892 C 13968,6934 13941,6976 13913,7017 L 13157,6507 13157,6507 C 13177,6476 13198,6444 13217,6413 L 13994,6892 Z"/>
 <path stroke-width="53" fill="none" stroke="rgb(255,255,255)" d="M 13994,6892 L 13994,6892 C 13968,6934 13941,6976 13913,7017 L 13157,6507 13157,6507 C 13177,6476 13198,6444 13217,6413 L 13994,6892 Z"/>
 <path fill="rgb(0,255,252)" stroke="none" d="M 13913,7017 L 13913,7017 C 13642,7419 13294,7762 12889,8028 L 12388,7265 12388,7265 C 12692,7066 12953,6808 13157,6507 L 13913,7017 Z"/>
 <path stroke-width="53" fill="none" stroke="rgb(255,255,255)" d="M 13913,7017 L 13913,7017 C 13642,7419 13294,7762 12889,8028 L 12388,7265 12388,7265 C 12692,7066 12953,6808 13157,6507 L 13913,7017 Z"/>
 <path fill="rgb(0,107,255)" stroke="none" d="M 12889,8028 L 12889,8028 C 12041,8585 11000,8763 10015,8521 L 10233,7634 10233,7634 C 10971,7816 11752,7682 12388,7265 L 12889,8028 Z"/>
 <path stroke-width="53" fill="none" stroke="rgb(255,255,255)" d="M 12889,8028 L 12889,8028 C 12041,8585 11000,8763 10015,8521 L 10233,7634 10233,7634 C 10971,7816 11752,7682 12388,7265 L 12889,8028 Z"/>
 <path fill="rgb(47,0,255)" stroke="none" d="M 10015,8521 L 10015,8521 C 9714,8447 9423,8335 9150,8187 L 9584,7384 9584,7384 C 9789,7495 10007,7579 10233,7634 L 10015,8521 Z"/>
 <path stroke-width="53" fill="none" stroke="rgb(255,255,255)" d="M 10015,8521 L 10015,8521 C 9714,8447 9423,8335 9150,8187 L 9584,7384 9584,7384 C 9789,7495 10007,7579 10233,7634 L 10015,8521 Z"/>
 <path fill="rgb(201,0,255)" stroke="none" d="M 9150,8187 L 9150,8187 C 8806,8001 8493,7760 8225,7475 L 8890,6850 8890,6850 C 9091,7064 9326,7244 9584,7384 L 9150,8187 Z"/>
 <path stroke-width="53" fill="none" stroke="rgb(255,255,255)" d="M 9150,8187 L 9150,8187 C 8806,8001 8493,7760 8225,7475 L 8890,6850 8890,6850 C 9091,7064 9326,7244 9584,7384 L 9150,8187 Z"/>
 <path fill="rgb(255,0,158)" stroke="none" d="M 8225,7475 L 8225,7475 C 6844,6005 6917,3694 8386,2313 8508,2199 8637,2094 8773,1997 L 9301,2742 9301,2742 C 8067,3618 7777,5327 8653,6560 8726,6662 8805,6759 8890,6850 L 8225,7475 Z"/>
 <path stroke-width="53" fill="none" stroke="rgb(255,255,255)" d="M 8225,7475 L 8225,7475 C 6844,6005 6917,3694 8386,2313 8508,2199 8637,2094 8773,1997 L 9301,2742 9301,2742 C 8067,3618 7777,5327 8653,6560 8726,6662 8805,6759 8890,6850 L 8225,7475 Z"/>
 <path fill="rgb(255,0,4)" stroke="none" d="M 8773,1997 L 8773,1997 C 9390,1559 10129,1323 10886,1323 L 10886,2236 10886,2236 C 10318,2236 9764,2413 9301,2742 L 8773,1997 Z"/>
 <path stroke-width="53" fill="none" stroke="rgb(255,255,255)" d="M 8773,1997 L 8773,1997 C 9390,1559 10129,1323 10886,1323 L 10886,2236 10886,2236 C 10318,2236 9764,2413 9301,2742 L 8773,1997 Z"/>
 <g fill="rgb(89,89,89)" stroke="none" font-family="Calibri" font-size="495" font-style="normal" font-weight="400">
  <text x="7747" y="751">
   <tspan x="7747 8009 8271 8385 8647 8905 9079 9185 9443 9557 9747 9912 10086 10200 10458 10716 10881 10995 11257 11515 11625 11887 12039 12149 12382 12496 12670 12784 12979 13089 13191 13352 13610 13830">Colour distribution of girls&apos; toys</tspan></text>
  <path fill="none" stroke="none" d="M 14,14 L 21759,14 21759,9013 14,9013 14,14 Z"/>
  <path stroke-width="26" fill="none" stroke="rgb(217,217,217)" d="M 14,14 L 21759,14 21759,9013 14,9013 14,14 Z"/>
 </g>
</svg>