<svg height="512" viewBox="0 0 512 512" width="512" xmlns="http://www.w3.org/2000/svg"><g id="Solid"><path d="m144 120.5a63.677 63.677 0 0 0 -31.06 12.85l31.06 31.059z"/><path d="m328 328h16v56h-16z"/><path d="m248 168a64.1 64.1 0 0 0 -56-63.5v60.18l42.633 42.482a63.51 63.51 0 0 0 13.367-39.162z"/><path d="m360 320v64h16v-88h-16z"/><path d="m248 440h16v48h-16z"/><path d="m48 424h416v-360h-416zm192-24h-128v-16h128zm16-32h-144v-16h144zm-128-32v-16h16v16zm128 0h-96v-16h96zm184 64h-144v-16h16v-64a8 8 0 0 1 8-8h24v-24a8 8 0 0 1 8-8h24v-24a8 8 0 0 1 8-8h32a8 8 0 0 1 8 8v128h16zm-16-312h16v16h-16zm0 32h16v48a8 8 0 0 1 -2.343 5.657l-29.657 29.657v28.686h-16v-32a8 8 0 0 1 2.343-5.657l29.657-29.657zm-88-24h64v16h-64zm-32 0h16v16h-16zm-16 32h112v16h-112zm0 32h96v16h-96zm-112-64a8 8 0 0 1 8-8 80 80 0 0 1 56.665 136.468 8 8 0 0 1 -11.311.019l-51-50.82a8 8 0 0 1 -2.354-5.667zm-104 160a8 8 0 0 1 2.343-5.657l15.744-15.743a79.953 79.953 0 0 1 61.913-130.6 8 8 0 0 1 8 8v68.678l48.646 48.475a8 8 0 0 1 .019 11.315 79.912 79.912 0 0 1 -107.265 5.445l-13.4 13.401v108.686h-16zm0 128h16v16h-16z"/><path d="m392 288v96h16v-120h-16z"/><path d="m32 32h448v16h-448z"/><path d="m122.343 202.343 11.314 11.314-20.869 20.869a63.913 63.913 0 0 0 78.549-.034l-44.983-44.825a7.963 7.963 0 0 1 -1.094-1.371l-43.666-43.665a63.8 63.8 0 0 0 -.12 78.581z"/></g></svg>