<svg height="464pt" viewBox="0 -48 464 464" width="464pt" xmlns="http://www.w3.org/2000/svg"><path d="m0 280c0 13.230469 10.769531 24 24 24h416c13.230469 0 24-10.769531 24-24v-24h-464zm432-8h16v16h-16zm-32 0h16v16h-16zm-32 0h16v16h-16zm0 0"/><path d="m0 184v56h56c0-30.871094-25.128906-56-56-56zm0 0"/><path d="m72 240h32v-10.214844l-17.433594-5.753906-1.023437-4.351562c-2.160157-9.09375-5.757813-17.769532-10.695313-25.777344l-2.351562-3.804688 8.265625-16.417968-14.457031-14.457032-16.417969 8.265625-3.808594-2.351562c-8.007813-4.9375-16.679687-8.535157-25.773437-10.695313l-4.351563-1.027344-5.753906-17.429687h-10.199219v32c39.703125.015625 72 32.3125 72 72.015625zm0 0"/><path d="m256 176v-144h-208v115.984375c.855469.449219 1.753906.785156 2.59375 1.253906l18.855469-9.496093 30.796875 30.800781-2.742188 5.457031zm-16-16h-128v-16h128zm0-32h-128v-16h128zm-144-80h144v16h-144zm-32 0h16v16h-16zm32 80h-32v-16h32zm-32-32v-16h176v16zm0 0"/><path d="m320 320h-176v32h-32v16h240v-16h-32zm0 0"/><path d="m304 160h112v48h-112zm0 0"/><path d="m440 0h-416c-13.230469 0-24 10.769531-24 24v96h21.785156l6.613282 20.03125c1.226562.34375 2.394531.863281 3.601562 1.257812v-125.289062h240v176h-179.984375c3.289063 6.28125 6.023437 12.808594 7.953125 19.601562l20.03125 6.621094v21.785156h344v-216c0-13.238281-10.769531-24.007812-24-24.007812zm-232 224h-48v-16h48zm32 0h-16v-16h16zm32 0h-16v-16h16zm160 0h-144v-80h144zm0-96h-144v-112h16v96h16v-72h16v72h16v-32h16v32h16v-96h16v96h16v-56h16zm0 0"/></svg>